<?xml version="1.0" encoding="utf-8"?>
<!-- Generator: Adobe Illustrator 25.4.4, SVG Export Plug-In . SVG Version: 6.00 Build 0)  -->
<svg version="1.1" id="PeopleCentered_v1H" xmlns="http://www.w3.org/2000/svg" xmlns:xlink="http://www.w3.org/1999/xlink" x="0px"
	 y="0px" viewBox="0 0 633.5 172" style="enable-background:new 0 0 633.5 172;" xml:space="preserve">
<style type="text/css">
	.st0{fill:#009999;}
</style>
<g id="University...">
	<path class="st0" d="M201.7,108.7h3.3v16c0,4.8,2.6,7.9,7.5,7.9s7.5-3,7.5-7.9v-16h3.3v16.1c0,6.6-3.6,10.7-10.7,10.7
		s-10.7-4.2-10.7-10.7L201.7,108.7L201.7,108.7z"/>
	<path class="st0" d="M232.6,113.8V135h-3.3v-26.3h3.4l15.1,20.8v-20.8h3.3V135h-3.2L232.6,113.8z"/>
	<path class="st0" d="M257.3,108.7h3.3V135h-3.3V108.7z"/>
	<path class="st0" d="M264,108.7h3.8l8.9,22.7l8.9-22.7h3.8L278.6,135h-4.1L264,108.7z"/>
	<path class="st0" d="M292.6,108.7h17.2v2.9h-14v8.5h13.7v2.9h-13.7v9.1h14v2.9h-17.3V108.7z"/>
	<path class="st0" d="M323.6,124.5h-5.2V135h-3.3v-26.3h10.6c4.8,0,8.2,3.1,8.2,7.9c0.2,4-2.8,7.4-6.8,7.7l7.1,10.7h-3.9
		L323.6,124.5z M325.3,111.6h-6.9v10.1h6.9c2.8,0,5-2.3,5-5S328.1,111.6,325.3,111.6z"/>
	<path class="st0" d="M339.4,128.8c2.1,2.4,5.1,3.7,8.3,3.8c4.7,0,6.2-2.5,6.2-4.5c0-3.2-3.2-4-6.7-5c-4.2-1.1-8.9-2.3-8.9-7.5
		c0-4.3,3.9-7.3,9-7.3c3.5-0.2,6.9,1.2,9.4,3.7l-2,2.4c-2-2.1-4.7-3.2-7.6-3.2c-3.2,0-5.4,1.7-5.4,4.2c0,2.6,3,3.4,6.4,4.3
		c4.3,1.1,9.2,2.5,9.2,8c0,3.8-2.6,7.7-9.7,7.7c-3.8,0.2-7.5-1.4-10.1-4.2L339.4,128.8z"/>
	<path class="st0" d="M362.2,108.7h3.3V135h-3.3V108.7z"/>
	<path class="st0" d="M378.2,111.6h-8.3v-2.9h20v2.9h-8.4V135h-3.3L378.2,111.6L378.2,111.6z"/>
	<path class="st0" d="M401.8,123.9l-10.4-15.2h3.8l8.2,12.2l8.2-12.2h3.8l-10.3,15.2V135h-3.3V123.9z"/>
	<path class="st0" d="M441,108.2c7.8,0,13.1,5.8,13.1,13.6s-5.3,13.6-13.1,13.6s-13.1-5.8-13.1-13.6S433.2,108.2,441,108.2z
		 M441,111.1c-5.9,0-9.7,4.5-9.7,10.7s3.8,10.7,9.7,10.7c5.9,0,9.7-4.6,9.7-10.7S446.9,111.1,441,111.1L441,111.1z"/>
	<path class="st0" d="M459.2,108.7h17.2v2.9h-14v8.5h13.7v2.9h-13.7v12h-3.3V108.7z"/>
	<path class="st0" d="M491.4,128.8c2.1,2.4,5.1,3.7,8.3,3.8c4.7,0,6.2-2.5,6.2-4.5c0-3.2-3.2-4-6.7-5c-4.2-1.1-8.9-2.3-8.9-7.5
		c0-4.3,3.9-7.3,9-7.3c3.5-0.2,6.9,1.2,9.3,3.7l-2,2.4c-2-2.1-4.7-3.2-7.6-3.2c-3.2,0-5.4,1.7-5.4,4.2c0,2.6,3,3.4,6.4,4.3
		c4.3,1.1,9.2,2.5,9.2,8c0,3.8-2.6,7.7-9.7,7.7c-3.8,0.2-7.5-1.4-10.1-4.2L491.4,128.8z"/>
	<path class="st0" d="M514.2,108.7h3.3v16c0,4.8,2.6,7.9,7.5,7.9s7.5-3,7.5-7.9v-16h3.3v16.1c0,6.6-3.6,10.7-10.7,10.7
		s-10.7-4.2-10.7-10.7L514.2,108.7L514.2,108.7z"/>
	<path class="st0" d="M550.4,124.5h-5.2V135h-3.3v-26.3h10.6c4.8,0,8.2,3.1,8.2,7.9c0.2,4-2.8,7.4-6.8,7.7l7.1,10.7h-3.9
		L550.4,124.5z M552,111.6h-6.9v10.1h6.9c2.8,0,5-2.3,5-5S554.8,111.6,552,111.6z"/>
	<path class="st0" d="M574.4,124.5h-5.2V135h-3.3v-26.3h10.6c4.8,0,8.2,3.1,8.2,7.9c0.2,4-2.8,7.4-6.8,7.7l7.1,10.7H581L574.4,124.5
		z M576,111.6h-6.9v10.1h6.9c2.8,0,5-2.3,5-5S578.8,111.6,576,111.6z"/>
	<path class="st0" d="M589.8,108.7H607v2.9h-14v8.5h13.7v2.9h-13.6v9.1h14v2.9h-17.3V108.7z"/>
	<path class="st0" d="M619.9,123.9l-10.4-15.2h3.8l8.2,12.2l8.2-12.2h3.8l-10.3,15.2V135h-3.3L619.9,123.9L619.9,123.9z"/>
</g>
<g id="People...">
	<path class="st0" d="M202.4,39.4H218c7.5,0,11.6,5.1,11.6,11.2s-4.2,11.2-11.6,11.2h-9.4V75h-6.2L202.4,39.4z M217.2,44.9h-8.5
		v11.3h8.5c3.5,0,6.1-2.2,6.1-5.7S220.7,44.9,217.2,44.9z"/>
	<path class="st0" d="M245.3,48.6c7.7,0,12.7,5.9,12.7,14V64h-19.9c0.4,4.2,4,7.3,8.2,7.1c2.7,0,5.3-1,7.3-2.8l2.6,3.7
		c-2.9,2.5-6.6,3.9-10.5,3.7c-7.7,0-13.5-5.4-13.5-13.6C232.3,54.7,237.7,48.6,245.3,48.6z M238.1,60h14.5c0-3.8-3.2-6.9-7-6.8
		c-0.1,0-0.2,0-0.3,0C240.5,53.2,238.4,56.9,238.1,60z"/>
	<path class="st0" d="M262,62.1c0-7.4,5.1-13.5,13.2-13.5s13.3,6.1,13.3,13.5c0,7.4-5,13.6-13.3,13.6S262,69.5,262,62.1z
		 M282.7,62.1c0-4.5-2.7-8.5-7.5-8.5s-7.4,4-7.4,8.5c0,4.5,2.7,8.6,7.4,8.6S282.7,66.7,282.7,62.1L282.7,62.1z"/>
	<path class="st0" d="M294.2,84.8V49.2h5.6v3.5c1.9-2.6,5-4.1,8.2-4.1c6.7,0,11.4,5,11.4,13.5s-4.8,13.5-11.4,13.5
		c-3.3,0-6.4-1.6-8.3-4.2v13.4L294.2,84.8L294.2,84.8z M306.4,53.6c-2.6,0.1-5.1,1.3-6.6,3.5v10.2c1.6,2.1,4,3.4,6.6,3.5
		c4.4,0,7.2-3.6,7.2-8.6S310.8,53.6,306.4,53.6z"/>
	<path class="st0" d="M325.1,39.4h5.6V75h-5.6V39.4z"/>
	<path class="st0" d="M349.4,48.6c7.7,0,12.7,5.9,12.7,14V64h-19.9c0.4,4.2,4,7.3,8.2,7.1c2.7,0,5.3-1,7.3-2.8l2.6,3.7
		c-2.9,2.5-6.6,3.9-10.5,3.7c-7.7,0-13.5-5.4-13.5-13.6C336.4,54.7,341.8,48.6,349.4,48.6z M342.2,60h14.5c0-3.8-3.2-6.9-7-6.8
		c-0.1,0-0.2,0-0.3,0C344.6,53.2,342.4,56.9,342.2,60z"/>
	<path class="st0" d="M365.6,59.7h12.8v4.8h-12.8V59.7z"/>
	<path class="st0" d="M382.2,57.2c0-10.9,8.2-18.4,18.4-18.4c6-0.2,11.5,2.9,14.6,8l-5.3,2.7c-1.9-3.2-5.5-5.2-9.2-5.2
		c-6.8,0-12,5.4-12,12.9s5.2,12.9,12,12.9c3.8,0,7.3-1.9,9.2-5.2l5.3,2.7c-3,5.1-8.6,8.2-14.6,8C390.4,75.7,382.2,68.2,382.2,57.2z"
		/>
	<path class="st0" d="M431.5,48.6c7.7,0,12.7,5.9,12.7,14V64h-19.9c0.4,4.2,4,7.3,8.2,7.1c2.7,0,5.3-1,7.3-2.8l2.6,3.7
		c-2.9,2.5-6.6,3.9-10.5,3.7c-7.7,0-13.5-5.4-13.5-13.6C418.5,54.7,423.9,48.6,431.5,48.6z M424.3,60h14.5c0-3.8-3.2-6.9-7-6.8
		c-0.1,0-0.2,0-0.3,0C426.7,53.2,424.5,56.9,424.3,60L424.3,60z"/>
	<path class="st0" d="M467.2,58.9c0-4-2-5.3-5.2-5.3c-2.6,0.1-5.1,1.4-6.6,3.5v18h-5.6V49.2h5.6v3.5c2.3-2.6,5.6-4.1,9.1-4.2
		c5.5,0,8.3,3,8.3,8.3V75h-5.6L467.2,58.9L467.2,58.9z"/>
	<path class="st0" d="M481.1,69.1V54.2h-4.3v-5h4.3v-7h5.6v7h5.3v5h-5.2v13.5c0,1.8,0.8,3,2.5,3c0.9,0,1.8-0.3,2.5-0.9l1.3,4.2
		c-1,1-2.7,1.6-5.3,1.6C483.4,75.7,481.1,73.3,481.1,69.1z"/>
	<path class="st0" d="M497,49.2h5.6V53c2-2.6,5.1-4.2,8.4-4.4v5.6c-0.6-0.1-1.2-0.2-1.8-0.2c-2.3,0-5.5,1.6-6.6,3.4V75H497V49.2z"/>
	<path class="st0" d="M527,48.6c7.7,0,12.7,5.9,12.7,14V64h-19.9c0.4,4.2,4,7.3,8.2,7.1c2.7,0,5.3-1,7.3-2.8l2.6,3.7
		c-2.9,2.5-6.6,3.9-10.5,3.7c-7.7,0-13.5-5.4-13.5-13.6C514,54.7,519.4,48.6,527,48.6z M519.8,60h14.5c0-3.8-3.2-6.9-7-6.8
		c-0.1,0-0.2,0-0.3,0C523.2,53.2,519.9,56.2,519.8,60L519.8,60z"/>
	<path class="st0" d="M563.4,71.5c-2,2.6-5,4.1-8.3,4.2c-6.6,0-11.5-5-11.5-13.5c0-8.3,4.8-13.6,11.5-13.6c3.3,0,6.3,1.6,8.3,4.2
		V39.4h5.6V75h-5.6L563.4,71.5z M563.4,57.1c-1.6-2.1-4-3.4-6.7-3.5c-4.4,0-7.2,3.6-7.2,8.6c0,5,2.8,8.5,7.2,8.5
		c2.6,0,5.1-1.3,6.7-3.4V57.1z"/>
	<path class="st0" d="M612.7,68.2h-16.9l-2.6,6.8h-6.8l14-35.6h7.8l14,35.6h-6.9L612.7,68.2z M597.6,62.7h13.3l-6.7-18L597.6,62.7z"
		/>
	<path class="st0" d="M626,39.4h6.2V75H626V39.4z"/>
</g>
<path class="st0" d="M51.8,80.9c1.3-10.7-6.1-20.3-16.4-21.5c-0.9,0-1.6,0.6-1.7,1.5c0,0.8,0.5,1.5,1.3,1.6
	c8.6,1,14.8,9.1,13.7,18.1S39.9,96,31.2,94.9c-4.6-0.6-8.6-3.1-11.1-6.9c-0.5-0.7-1.4-0.9-2.1-0.4c0,0,0,0,0,0
	c-0.7,0.5-0.9,1.5-0.4,2.2c3,4.6,7.8,7.6,13.3,8.3C41.2,99.3,50.6,91.6,51.8,80.9"/>
<path class="st0" d="M166.9,104.9h-0.1c-3.1-9-6.9-17.7-11.5-26.1c0.8-0.9,1.3-2.1,1.3-3.3c0-0.2,0-0.3,0-0.5
	c2.8-1.1,5.7-2.3,8.5-3.7c0.8,0.9,1.8,1.4,3,1.6c0.7,4.2,1,8.4,1,12.6C169.1,92,168.3,98.5,166.9,104.9 M150.3,137.9
	c-0.7-0.3-1.4-0.5-2.2-0.5c-0.2,0-0.5,0-0.7,0.1c-2.2-4.7-4.2-8.8-6.1-12.6c0.8-0.9,1.3-2,1.3-3.2c7.2-2.1,14.1-5,20.6-8.6
	c0.3,0.3,0.5,0.5,0.8,0.7C160.9,122.6,156.2,130.7,150.3,137.9 M143.2,142.3c0,0.9,0.3,1.8,0.7,2.6c-7.4,7.2-16.1,13-25.7,17
	c7.5-11.3,14-23.1,19.5-35.5c0.3,0,0.7,0,1-0.1c1.9,3.7,3.9,7.8,6,12.4C143.8,139.5,143.2,140.9,143.2,142.3 M115.8,160.5
	c-0.7-0.4-1.5-0.5-2.2-0.5c-0.4,0-0.8,0-1.2,0.1c-5-9.3-10.5-19.1-15.9-28.6c0.5-0.6,0.9-1.3,1.1-2c12.2-0.8,24.3-2.6,36.2-5.3
	c0.4,0.6,0.9,1.1,1.5,1.4c-5.4,12.2-11.9,23.9-19.3,35 M108.8,165c0,0.1,0,0.2,0,0.3c-7.3,2.1-14.9,3.1-22.4,3.1
	c-3.3,0-6.7-0.2-10-0.6c0-0.2,0-0.4,0-0.6c0-1.2-0.5-2.4-1.3-3.3c6.4-9.9,12.3-20.1,17.6-30.7h0.3c0.4,0,0.9-0.1,1.3-0.2
	c5.1,8.9,10.5,18.6,15.9,28.6C109.2,162.5,108.7,163.7,108.8,165 M72.6,162.4c-0.4-0.1-0.8-0.1-1.2-0.1c-1,0-1.9,0.3-2.7,0.8
	c-7.7-6.2-15.5-17-16.8-30c1.6-0.4,2.8-1.6,3.3-3.1c4.8,0.2,11.1,0.5,18.4,0.5c4.5,0,9.5-0.1,14.6-0.3c0.3,0.8,0.9,1.5,1.6,2.1
	C84.7,142.6,78.9,152.7,72.6,162.4 M44.3,150.1L44.3,150.1c0.8-0.3,1.5-0.6,2.2-1c0.8-0.5,1.2-1.5,0.7-2.3c-0.4-0.8-1.4-1.2-2.2-0.8
	c0,0,0,0,0,0c-1.7,0.9-3.4,1.5-5.3,1.8c-10.7,2-21.1-5.5-23.1-16.7c-1.2-6.5,0.7-13.2,5.2-18c0.2-0.2,0.4-0.5,0.4-0.9
	c0.9,0,1.8,0,2.7-0.1c2.1-0.2,4.2-0.7,6.2-1.6c0.7-0.3,1.1-1,1-1.8c0-0.2-0.1-0.3-0.1-0.5c-0.3-0.8-1.2-1.3-2.1-1c0,0,0,0,0,0
	c-1.7,0.7-3.5,1.1-5.3,1.3c-10.6,1.1-20.1-7-21.2-18C2.7,84.3,5.1,78,9.8,73.6c0.2-0.2,0.3-0.4,0.4-0.6c3.4,3.6,7.9,5.9,12.7,6.5
	c0.9,0.1,1.7-0.5,1.9-1.4c0.1-0.9-0.5-1.7-1.4-1.9C13.7,74.9,6.9,66.2,8.2,57s10.2-15.8,19.9-14.4c5,0.7,9.5,3.5,12.4,7.6
	c0.5,0.8,1.6,1,2.4,0.5c0.8-0.5,1-1.4,0.5-2.2c0,0,0,0,0-0.1c-3.4-4.9-8.8-8.2-14.7-9.1c-2.3-10.2,4.2-20.6,14.9-23.2
	c7.8-2.1,16.1,0.8,21,7.2c0.6,0.7,1.6,0.9,2.4,0.3c0.7-0.5,0.9-1.5,0.4-2.3c0,0,0,0,0,0c-1.7-2.3-3.9-4.3-6.4-5.8
	c0.8-1.7,1.7-3.3,2.9-4.7C69.4,3.9,79,1.5,87.3,5c-1.1,0.8-2.2,1.8-3.1,2.8c-0.7,0.8-0.6,1.9,0.1,2.6c0.7,0.7,1.7,0.7,2.4,0.1
	c0,0,0,0,0.1-0.1c1.6-1.7,3.5-3.2,5.7-4.2c10.1-5.1,22.8-0.4,28.2,10.3s1.6,23.7-8.6,28.8c-7.1,3.6-15.3,3.4-21.8-1.8
	c-0.7-0.6-1.8-0.6-2.4,0.1c0,0-0.1,0.1-0.1,0.1c-0.6,0.8-0.4,1.9,0.4,2.6c7.5,6.2,17.2,6.5,25.5,2.3c2.5-1.2,4.7-2.9,6.6-4.9
	c0.4,0.7,0.9,1.2,1.5,1.6c-0.6,1.9-1.2,3.8-2,5.7c-6.4,15-17.2,22.6-35,31.5L83.7,83c-3.4,1.4-6.7,3.1-9.8,5c-2.2-1.6-5.2-1.1-6.9,1
	c-0.6,0.8-1,1.9-1,2.9c0,0.5,0.1,1,0.2,1.4c-11.6,9.6-15.8,20.9-17,30.4c-2.6,0.8-4.1,3.5-3.3,6.1c0.5,1.5,1.6,2.7,3.1,3.2
	c0.8,7.4,3.3,14.4,7.3,20.6c2.3,3.6,5.1,6.9,8.3,9.8C55.7,165.4,46.6,159.5,44.3,150.1 M124.4,12.2c8.7,4.7,16.6,10.9,23.2,18.3
	c-0.3,0.7-0.5,1.4-0.5,2.2c0,0.1,0,0.2,0,0.3c-6.1,2.2-12.3,3.9-18.6,5.3c-0.5-0.7-1.2-1.2-2.1-1.6c0.3-2.7,0.3-5.3,0.2-8
	c0.3-4.7-0.6-9.3-2.7-13.5c-0.3-0.8-0.6-1.6-0.9-2.3C123.5,12.8,124,12.5,124.4,12.2 M150.9,37.6c1.3,11,1.2,22.1-0.2,33.1h-0.2
	c-6.1-9.9-13.4-19.1-21.6-27.2c0.3-0.7,0.5-1.4,0.5-2.2c0-0.1,0-0.2,0-0.3c6.3-1.3,12.5-3.1,18.6-5.3
	C148.7,36.6,149.8,37.3,150.9,37.6 M119.2,88.8l-1.9-2.7c0.3-0.6,0.5-1.3,0.6-2c10-1.1,20-3,29.6-5.8c0.5,0.7,1.1,1.3,1.9,1.7
	c-2.3,12.6-5.8,24.9-10.5,36.8c-0.4-0.1-0.7-0.1-1.1-0.1c-0.3,0-0.5,0-0.8,0.1C131.8,107,125.8,97.7,119.2,88.8 M112.1,88.6
	c0.3,0.1,0.6,0.1,0.9,0.1c0.8,0,1.5-0.2,2.2-0.5l1.7,2.4c6.5,8.7,12.4,17.9,17.6,27.5c-1,0.9-1.6,2.2-1.6,3.6
	c-11.6,2.7-23.5,4.5-35.4,5.3c-0.2-0.6-0.5-1.2-0.9-1.6C102.7,112.4,107.9,99.9,112.1,88.6 M125.3,46.2c0.6-0.1,1.2-0.3,1.7-0.6
	c8.1,8,15.2,16.9,21.1,26.6c-0.9,0.9-1.4,2.1-1.4,3.3c-9.6,2.8-19.5,4.8-29.5,5.9c-0.4-0.8-1.1-1.5-1.9-1.9
	C119.3,68.6,122.6,57.5,125.3,46.2 M112.5,78.9c-2,0.2-3.7,1.6-4.3,3.5c-6.2,0.6-13,1.2-20.4,1.7c14.8-7.5,24.7-14.4,31.4-25.8
	C117.5,64.1,115.3,71.1,112.5,78.9 M89.4,124.9c-0.7,0.7-1.1,1.5-1.4,2.5c-13.4,0.6-25.1,0.2-32.7-0.2c-0.4-1.7-1.7-3-3.3-3.5
	c1.1-8.7,5.1-19.1,15.7-28c0.9,0.7,2,1.1,3.1,1.1c0.5,0,1-0.1,1.4-0.2C75.7,101.6,81.9,111.9,89.4,124.9 M86.5,114.4
	c-4-6.8-7.5-12.5-10.1-16.6c-0.7-1.1-1.2-1.9-1.8-2.7c0.7-0.9,1.1-2,1.1-3.1c0-0.6-0.1-1.1-0.3-1.7c1.6-1,3.3-1.9,5.1-2.8
	c10.4-0.8,19.4-1.5,27.7-2.3c0.2,0.8,0.7,1.4,1.2,2c-4.2,11.3-9.3,23.7-15.4,36.4c-0.4-0.1-0.8-0.2-1.3-0.2c-0.3,0-0.7,0-1,0.1
	C90,120.4,88.3,117.3,86.5,114.4 M152.1,80.4c0.2,0,0.5-0.1,0.7-0.1c4.5,8.2,8.2,16.8,11.2,25.6c-1.3,0.9-2,2.4-2,3.9
	c0,0.3,0,0.5,0.1,0.8c-6.4,3.5-13.1,6.4-20.1,8.5c-0.2-0.3-0.4-0.6-0.6-0.9C146.2,106,149.8,93.3,152.1,80.4 M153.9,38.6
	c5.4,7.7,9.6,16.3,12.2,25.4c-1.7,1-2.6,3-2.3,4.9c-2.8,1.3-5.6,2.5-8.4,3.6c-0.5-0.6-1.1-1.1-1.9-1.4
	C154.9,60.3,155.1,49.4,153.9,38.6 M173.5,68.1c0-2.6-2.1-4.8-4.7-4.9c-2.8-9.8-7.3-18.9-13.2-27.1c1.8-2,1.6-5.1-0.5-6.9
	c-1.6-1.4-3.8-1.6-5.6-0.6c-6.8-7.5-14.7-13.7-23.5-18.6c0.2-0.5,0.3-1.1,0.3-1.6c0-2.7-2.2-4.9-4.9-4.8c-1.6,0-3.2,0.9-4.1,2.2
	c-0.8-0.3-1.6-0.6-2.4-0.9c-7.1-5-16.3-5.8-24.1-2h-0.1c-9.5-5.5-22.1-3-29.4,5.8C60,10.3,58.9,12.1,58,14c-4.8-2-10.2-2.4-15.3-1.1
	c-12.1,3-19.7,14.6-17.6,26.2C15,39.3,6.3,46.5,4.9,56.5c-0.7,5,0.6,10,3.5,14.1c-0.3,0.1-0.5,0.2-0.7,0.4c-5.5,5.1-8.3,12.5-7.5,20
	c0.9,10.2,8.3,18.6,18.3,20.8c-4.5,5.6-6.4,12.8-5.1,19.9c2.4,13.1,14.5,21.8,27,19.5l0.8-0.2c2.8,11.2,13.8,18.2,24.6,15.6
	c0.4-0.1,0.7-0.3,0.9-0.7c-0.1,0.4-0.1,0.8-0.1,1.2c0,0.6,0.1,1.1,0.3,1.6v0.1h0.1c1,2.5,3.8,3.8,6.3,2.8c0.7-0.3,1.4-0.7,1.9-1.3
	c11.6,1.5,23.4,0.7,34.7-2.5c1.6,2.2,4.7,2.6,6.8,1c1.2-0.9,2-2.4,1.9-4v-0.1c10.3-4.2,19.7-10.4,27.6-18.1c2.4,1.1,5.4,0.1,6.5-2.4
	c0.7-1.4,0.6-3.1-0.2-4.5c6.2-7.5,11.1-16,14.4-25.2h0.1c2.7,0,4.9-2.2,4.9-4.9c0-1.7-0.9-3.2-2.2-4.1c1.6-6.6,2.4-13.3,2.4-20.1
	c0-4.4-0.3-8.8-1-13.1c1.6-0.8,2.6-2.5,2.6-4.3"/>
<path class="st0" d="M41.4,119.4c-7.3-1.1-14.2,4.2-15.4,11.9c-0.2,0.9,0.4,1.8,1.3,1.9c0.9,0.2,1.8-0.4,1.9-1.3c0-0.1,0-0.1,0-0.2
	c0.7-5.7,5.9-9.7,11.6-8.9c0.9,0.1,1.8-0.5,1.9-1.4c0,0,0,0,0,0C42.9,120.4,42.3,119.5,41.4,119.4C41.4,119.4,41.4,119.4,41.4,119.4
	"/>
<path class="st0" d="M68.7,36.7c0.7-0.5,0.8-1.4,0.4-2.1c-0.4-0.7-1.3-0.9-2-0.4c0,0,0,0-0.1,0c-7.2,5.1-17.1,3.8-22.8-2.9
	c-0.5-0.6-1.4-0.7-2-0.2c0,0,0,0-0.1,0.1c-0.4,0.4-0.6,0.9-0.4,1.5c0.1,0.3,0.2,0.5,0.4,0.7C48.7,41.1,60.3,42.6,68.7,36.7"/>
<path class="st0" d="M64.3,55.7c-0.8-0.6-1.9-0.4-2.4,0.3c-0.6,0.8-0.4,1.9,0.3,2.4c0.1,0,0.1,0.1,0.2,0.1
	c5.1,3.3,6.6,10.1,3.3,15.2c-0.5,0.9-0.2,2,0.7,2.5c0.8,0.4,1.7,0.2,2.3-0.5C73.1,69.2,71.1,60.2,64.3,55.7"/>
<path class="st0" d="M93.7,62.8c0.9,0.1,1.6-0.5,1.7-1.4c0.1-0.9-0.5-1.6-1.4-1.7c-0.1,0-0.1,0-0.2,0C84.9,59.4,78,51.9,78.3,43
	c0.3-8.9,7.8-15.8,16.7-15.5c4.6,0.2,9,2.3,11.9,5.9c0.6,0.7,1.5,0.8,2.2,0.2s0.8-1.5,0.2-2.2l0,0c-6.7-8.3-18.8-9.6-27.1-3
	c-8.3,6.7-9.6,18.8-3,27.1C82.8,60,88.1,62.6,93.7,62.8"/>
</svg>
